<svg width="30" height="30" viewBox="0 0 30 30" fill="black" xmlns="http://www.w3.org/2000/svg">
<path d="M24.1579 24.5V24.125H23.6185L23.8064 24.6306L24.1579 24.5ZM24.8693 26.4139L25.2208 26.2832L24.8693 26.4139ZM24.0949 26.9837L23.8656 27.2804H23.8656L24.0949 26.9837ZM20.8806 24.5L21.1099 24.2033L21.0086 24.125H20.8806V24.5ZM7.69323 22L8.04473 22.1306L8.23267 21.625H7.69323V22ZM6.60918 24.9166L6.25767 24.7859L6.60918 24.9166ZM7.38357 25.4864L7.61286 25.7831H7.61286L7.38357 25.4864ZM11.8954 22V21.625H11.7674L11.6661 21.7033L11.8954 22ZM14.4481 7.25L14.7133 6.98483C14.6411 6.91269 14.5427 6.87306 14.4407 6.87507C14.3387 6.87709 14.2419 6.92058 14.1727 6.99551L14.4481 7.25ZM10.6644 11.3451L10.9277 11.6121L10.9339 11.606L10.9399 11.5995L10.6644 11.3451ZM10.3166 12.278H10.6916V12.2596L10.6898 12.2413L10.3166 12.278ZM17 18.25L17.3609 18.352L17.368 18.3267L17.3716 18.3007L17 18.25ZM17.75 12.75L18.1216 12.8007L18.125 12.7755V12.75H17.75ZM14.4481 11.5903L14.146 11.3681C14.0622 11.4821 14.0497 11.6334 14.1135 11.7596C14.1773 11.8858 14.3067 11.9653 14.4481 11.9653V11.5903ZM15.25 10.5L15.5521 10.7222L15.5693 10.6987L15.5828 10.6729L15.25 10.5ZM28.973 13C28.973 12.5168 28.5813 12.125 28.098 12.125V12.875C28.1671 12.875 28.223 12.931 28.223 13H28.973ZM28.973 24V13H28.223V24H28.973ZM28.098 24.875C28.5813 24.875 28.973 24.4832 28.973 24H28.223C28.223 24.069 28.1671 24.125 28.098 24.125V24.875ZM24.1579 24.875H28.098V24.125H24.1579V24.875ZM25.2208 26.2832L24.5094 24.3694L23.8064 24.6306L24.5178 26.5445L25.2208 26.2832ZM23.8656 27.2804C24.5618 27.8184 25.5273 27.1079 25.2208 26.2832L24.5178 26.5445C24.5316 26.5819 24.5286 26.6075 24.5225 26.6259C24.5153 26.6475 24.4994 26.6706 24.4747 26.6888C24.45 26.7069 24.4232 26.7152 24.4005 26.7157C24.3811 26.7161 24.3557 26.7114 24.3242 26.687L23.8656 27.2804ZM20.6514 24.7967L23.8656 27.2804L24.3242 26.687L21.1099 24.2033L20.6514 24.7967ZM13.5 24.875H20.8806V24.125H13.5V24.875ZM12.625 24C12.625 24.4832 13.0167 24.875 13.5 24.875V24.125C13.431 24.125 13.375 24.069 13.375 24H12.625ZM28.098 12.125H22V12.875H28.098V12.125ZM2.375 5.5C2.375 5.43096 2.43096 5.375 2.5 5.375V4.625C2.01675 4.625 1.625 5.01675 1.625 5.5H2.375ZM2.375 21.5V5.5H1.625V21.5H2.375ZM2.5 21.625C2.43096 21.625 2.375 21.569 2.375 21.5H1.625C1.625 21.9832 2.01675 22.375 2.5 22.375V21.625ZM7.69323 21.625H2.5V22.375H7.69323V21.625ZM6.96068 25.0472L8.04473 22.1306L7.34172 21.8694L6.25767 24.7859L6.96068 25.0472ZM7.15428 25.1897C7.12273 25.2141 7.09738 25.2188 7.07796 25.2184C7.05521 25.2179 7.02847 25.2096 7.00376 25.1914C6.97906 25.1733 6.96317 25.1502 6.95595 25.1286C6.94979 25.1102 6.94679 25.0846 6.96068 25.0472L6.25767 24.7859C5.95115 25.6106 6.91668 26.3211 7.61286 25.7831L7.15428 25.1897ZM11.6661 21.7033L7.15428 25.1897L7.61286 25.7831L12.1247 22.2967L11.6661 21.7033ZM21.5 21.625H11.8954V22.375H21.5V21.625ZM21.625 21.5C21.625 21.569 21.569 21.625 21.5 21.625V22.375C21.9832 22.375 22.375 21.9832 22.375 21.5H21.625ZM21.625 5.5V21.5H22.375V5.5H21.625ZM21.5 5.375C21.569 5.375 21.625 5.43096 21.625 5.5H22.375C22.375 5.01675 21.9832 4.625 21.5 4.625V5.375ZM2.5 5.375H21.5V4.625H2.5V5.375ZM10.9399 11.5995L14.7235 7.50449L14.1727 6.99551L10.389 11.0906L10.9399 11.5995ZM10.6898 12.2413C10.6684 12.0234 10.7441 11.7931 10.9277 11.6121L10.4012 11.078C10.0585 11.4158 9.89955 11.8686 9.94341 12.3147L10.6898 12.2413ZM10.6916 18.6112V12.278H9.94161V18.6112H10.6916ZM10.8166 18.7362C10.7476 18.7362 10.6916 18.6803 10.6916 18.6112H9.94161C9.94161 19.0945 10.3334 19.4862 10.8166 19.4862V18.7362ZM15.8994 18.7362H10.8166V19.4862H15.8994V18.7362ZM16.6391 18.148C16.5843 18.3421 16.4939 18.4862 16.3811 18.5806C16.2723 18.6718 16.1199 18.7362 15.8994 18.7362V19.4862C16.2795 19.4862 16.6068 19.37 16.8627 19.1556C17.1148 18.9444 17.2744 18.6579 17.3609 18.352L16.6391 18.148ZM17.3784 12.6993L16.6284 18.1993L17.3716 18.3007L18.1216 12.8007L17.3784 12.6993ZM16.8587 11.9653C17.0017 11.9653 17.375 12.1634 17.375 12.75H18.125C18.125 11.8366 17.4983 11.2153 16.8587 11.2153V11.9653ZM14.4481 11.9653H16.8587V11.2153H14.4481V11.9653ZM14.9479 10.2778L14.146 11.3681L14.7502 11.8125L15.5521 10.7222L14.9479 10.2778ZM14.1829 7.51517C14.799 8.13125 15.0983 8.57043 15.1976 8.96622C15.2914 9.34031 15.2214 9.74153 14.9172 10.3271L15.5828 10.6729C15.9279 10.0085 16.082 9.40969 15.9251 8.78378C15.7735 8.17957 15.3472 7.61875 14.7133 6.98483L14.1829 7.51517ZM6.5 11.6877H9.81662V10.9377H6.5V11.6877ZM9.94162 11.8127V18.9663H10.6916V11.8127H9.94162ZM9.81662 19.0913H6.5V19.8413H9.81662V19.0913ZM6.375 18.9663V11.8127H5.625V18.9663H6.375ZM6.5 19.0913C6.43096 19.0913 6.375 19.0354 6.375 18.9663H5.625C5.625 19.4496 6.01675 19.8413 6.5 19.8413V19.0913ZM9.94162 18.9663C9.94162 19.0354 9.88565 19.0913 9.81662 19.0913V19.8413C10.2999 19.8413 10.6916 19.4496 10.6916 18.9663H9.94162ZM9.81662 11.6877C9.88565 11.6877 9.94162 11.7437 9.94162 11.8127H10.6916C10.6916 11.3295 10.2999 10.9377 9.81662 10.9377V11.6877ZM6.5 10.9377C6.01675 10.9377 5.625 11.3295 5.625 11.8127H6.375C6.375 11.7437 6.43096 11.6877 6.5 11.6877V10.9377ZM12.625 22V24H13.375V22H12.625Z" fill="black"/>
</svg>
