<svg width="30" height="30" viewBox="0 0 30 30" fill="none" xmlns="http://www.w3.org/2000/svg">
<path fill-rule="evenodd" clip-rule="evenodd" d="M20.7755 12.7628C20.7755 16.7739 17.5239 20.0255 13.5128 20.0255C9.50165 20.0255 6.25 16.7739 6.25 12.7628C6.25 8.75165 9.50165 5.5 13.5128 5.5C17.5239 5.5 20.7755 8.75165 20.7755 12.7628ZM18.9789 18.9593C17.5222 20.2452 15.6086 21.0255 13.5128 21.0255C8.94937 21.0255 5.25 17.3262 5.25 12.7628C5.25 8.19937 8.94937 4.5 13.5128 4.5C18.0762 4.5 21.7755 8.19937 21.7755 12.7628C21.7755 14.8586 20.9952 16.7722 19.7092 18.2289L20.1144 18.6341L24.5429 23.0626L25.25 23.7697L25.2268 23.7929L24.5429 24.4768L24.5197 24.5L23.8126 23.7929L19.3841 19.3645L18.9789 18.9593Z" fill="black"/>
</svg>
